<svg width="1343" height="264" viewBox="0 0 1343 264" fill="none" xmlns="http://www.w3.org/2000/svg">
<rect width="1339" height="264" fill="white"/>
<rect width="1343" height="76" fill="black"/>
<path d="M53.7681 136.613V144.574H115.196V136.613M53.7681 160.496H115.196V152.535H53.7681M53.7681 192.341H115.196V184.38H53.7681M53.7681 176.418H115.196V168.457H53.7681V176.418Z" fill="black"/>
<path d="M1264.97 141.301H1257.6C1257.6 129.932 1249.49 121 1239.17 121C1228.85 121 1220.74 129.932 1220.74 141.301H1213.37C1209.32 141.301 1206 144.955 1206 149.421V198.143C1206 202.609 1209.32 206.264 1213.37 206.264H1264.97C1269.03 206.264 1272.34 202.609 1272.34 198.143V149.421C1272.34 144.955 1269.03 141.301 1264.97 141.301ZM1239.17 129.12C1245.44 129.12 1250.23 134.399 1250.23 141.301H1228.11C1228.11 134.399 1232.91 129.12 1239.17 129.12ZM1264.97 198.143H1213.37V149.421H1264.97V198.143ZM1239.17 165.662C1232.91 165.662 1228.11 160.384 1228.11 153.481H1220.74C1220.74 164.85 1228.85 173.782 1239.17 173.782C1249.49 173.782 1257.6 164.85 1257.6 153.481H1250.23C1250.23 160.384 1245.44 165.662 1239.17 165.662Z" fill="black"/>
</svg>
