<svg width="67" height="74" viewBox="0 0 67 74" fill="none" xmlns="http://www.w3.org/2000/svg">
<path d="M59.1912 18.1565H51.8417C51.8417 8.40871 43.7572 0.749756 33.4679 0.749756C23.1785 0.749756 15.0941 8.40871 15.0941 18.1565H7.74454C3.7023 18.1565 0.39502 21.2897 0.39502 25.1191V66.8952C0.39502 70.7247 3.7023 73.8579 7.74454 73.8579H59.1912C63.2334 73.8579 66.5407 70.7247 66.5407 66.8952V25.1191C66.5407 21.2897 63.2334 18.1565 59.1912 18.1565ZM33.4679 7.71244C39.7149 7.71244 44.4921 12.2382 44.4921 18.1565H22.4436C22.4436 12.2382 27.2208 7.71244 33.4679 7.71244ZM59.1912 66.8952H7.74454V25.1191H59.1912V66.8952ZM33.4679 39.0445C27.2208 39.0445 22.4436 34.5188 22.4436 28.6005H15.0941C15.0941 38.3482 23.1785 46.0072 33.4679 46.0072C43.7572 46.0072 51.8417 38.3482 51.8417 28.6005H44.4921C44.4921 34.5188 39.7149 39.0445 33.4679 39.0445Z" fill="black"/>
</svg>
