<svg width="67" height="86" viewBox="0 0 67 86" fill="none" xmlns="http://www.w3.org/2000/svg">
<path d="M58.9713 20.3009H51.5999C51.5999 8.93238 43.4913 0 33.1713 0C22.8514 0 14.7428 8.93238 14.7428 20.3009H7.37141C3.31713 20.3009 0 23.955 0 28.4212V77.1432C0 81.6094 3.31713 85.2636 7.37141 85.2636H58.9713C63.0255 85.2636 66.3427 81.6094 66.3427 77.1432V28.4212C66.3427 23.955 63.0255 20.3009 58.9713 20.3009ZM33.1713 8.12034C39.437 8.12034 44.2285 13.3986 44.2285 20.3009H22.1142C22.1142 13.3986 26.9056 8.12034 33.1713 8.12034ZM58.9713 77.1432H7.37141V28.4212H58.9713V77.1432ZM33.1713 44.6619C26.9056 44.6619 22.1142 39.3837 22.1142 32.4814H14.7428C14.7428 43.8498 22.8514 52.7822 33.1713 52.7822C43.4913 52.7822 51.5999 43.8498 51.5999 32.4814H44.2285C44.2285 39.3837 39.437 44.6619 33.1713 44.6619Z" fill="black"/>
</svg>
